<?xml version="1.0" standalone="no"?>
<!DOCTYPE svg PUBLIC "-//W3C//DTD SVG 20010904//EN"
 "http://www.w3.org/TR/2001/REC-SVG-20010904/DTD/svg10.dtd">
<svg version="1.0" xmlns="http://www.w3.org/2000/svg"
 width="1391.000000pt" height="1391.000000pt" viewBox="0 0 1391.000000 1391.000000"
 preserveAspectRatio="xMidYMid meet">
<metadata>
Created by potrace 1.14, written by Peter Selinger 2001-2017
</metadata>
<g transform="translate(0.000000,1391.000000) scale(0.100000,-0.100000)"
fill="#000000" stroke="none">
<path d="M9242 8251 c-241 -248 -243 -1012 -5 -1501 48 -96 68 -126 132 -190
42 -43 86 -79 98 -82 17 -5 6 10 -36 52 -132 130 -239 384 -296 700 -22 126
-32 474 -16 595 24 180 77 337 142 418 42 53 29 58 -19 8z"/>
<path d="M8849 8050 c-164 -172 -204 -641 -88 -1032 57 -192 152 -355 241
-415 75 -52 78 -43 8 27 -113 112 -200 314 -247 570 -22 120 -25 464 -5 555
32 144 76 249 130 308 16 16 21 27 12 27 -7 0 -30 -18 -51 -40z"/>
<path d="M8592 7989 c-132 -66 -219 -229 -228 -429 l-4 -105 33 95 c32 89 92
220 102 220 2 0 -5 -20 -16 -45 -55 -124 -69 -248 -49 -443 10 -91 37 -210 39
-170 1 10 15 48 32 85 69 153 68 149 44 206 -8 21 -15 67 -15 106 0 76 26 156
101 306 21 44 42 96 46 115 3 19 17 43 30 53 13 10 23 23 23 28 0 20 -79 8
-138 -22z"/>
<path d="M7147 6059 c-9 -5 -24 -24 -33 -42 -21 -41 -31 -47 -75 -47 -49 0
-89 -32 -89 -71 0 -60 50 -121 110 -134 22 -5 32 -14 36 -33 14 -69 37 -113
64 -127 61 -31 102 -12 126 58 6 19 18 33 30 34 10 2 75 -10 144 -25 l125 -27
5 -54 c6 -59 26 -81 71 -81 31 0 49 18 69 74 17 46 23 48 183 60 l87 7 0 -31
c0 -34 38 -80 65 -80 42 0 74 30 96 91 19 53 28 64 58 76 66 26 83 37 97 66 8
15 12 37 9 48 -7 22 -73 59 -105 59 -14 0 -20 7 -20 23 0 12 -4 28 -9 35 -11
17 -59 42 -81 42 -31 0 -76 -46 -89 -92 -7 -24 -20 -51 -28 -60 -15 -17 -70
-31 -169 -43 -48 -6 -52 -5 -58 17 -3 13 -6 33 -6 46 0 35 -43 72 -84 72 -39
0 -55 -17 -76 -84 l-12 -38 -47 6 c-25 3 -85 18 -133 33 l-88 26 0 51 c0 62
-32 115 -83 140 -40 18 -64 20 -90 5z"/>
<path d="M4670 5070 c-13 -8 -12 -10 3 -10 9 0 17 5 17 10 0 12 -1 12 -20 0z"/>
<path d="M4687 5043 c-3 -3 -3 -11 0 -19 4 -10 -3 -14 -26 -14 -19 0 -34 -6
-37 -15 -4 -8 -16 -15 -28 -15 -11 0 -28 -5 -36 -10 -11 -8 -8 -9 13 -4 17 4
27 2 27 -5 0 -6 -3 -12 -7 -12 -5 -1 -21 -3 -37 -5 -16 -2 -39 -13 -50 -25
l-21 -21 33 17 c65 32 48 1 -20 -39 -63 -37 -61 -43 2 -11 64 33 64 24 0 -16
-40 -25 -47 -33 -37 -44 6 -7 16 -10 21 -7 5 3 7 -2 3 -11 -3 -9 -2 -19 3 -22
5 -3 -3 -18 -18 -33 -16 -15 -21 -21 -12 -14 18 13 43 16 54 5 3 -4 -4 -13
-16 -21 l-23 -13 25 5 c14 3 31 -1 42 -10 16 -15 15 -17 -10 -41 -25 -23 -24
-22 11 2 35 26 44 24 38 -9 -1 -5 4 -4 11 2 25 20 57 -24 35 -49 -10 -11 -9
-11 5 0 10 7 15 18 12 23 -3 5 3 4 15 -4 20 -12 26 -27 22 -56 -2 -11 2 -11
19 -2 27 15 38 5 22 -20 -21 -33 -13 -43 11 -14 20 23 26 25 45 15 15 -8 21
-19 19 -34 -2 -12 -2 -17 0 -10 5 14 33 26 33 14 0 -5 8 -8 18 -7 13 1 16 -5
13 -24 -3 -25 -3 -25 18 -6 28 25 51 8 25 -18 -9 -9 -14 -20 -10 -23 3 -4 12
0 19 9 29 37 65 26 58 -17 -3 -19 -2 -19 16 -2 19 16 43 23 43 12 0 -3 -7 -17
-16 -31 -9 -13 -13 -28 -9 -32 4 -4 10 -1 12 5 3 7 14 23 25 35 15 17 18 19
14 6 -6 -19 18 -26 29 -8 4 6 11 8 16 5 5 -3 2 -17 -7 -31 -20 -29 -9 -48 11
-20 8 10 16 24 18 29 2 7 11 7 23 2 18 -8 26 -11 39 -14 3 0 1 -10 -5 -21 -9
-16 -8 -20 5 -20 9 0 18 7 21 15 4 8 13 15 21 15 13 0 13 -3 3 -15 -7 -9 -10
-18 -7 -22 4 -3 2 -14 -4 -24 -6 -13 -6 -19 0 -19 6 0 14 15 19 32 5 18 16 34
25 36 15 3 16 0 7 -23 -15 -39 -13 -41 16 -9 15 16 23 23 19 15 -6 -11 -4 -13
8 -8 10 3 17 2 17 -3 0 -6 -4 -10 -9 -10 -5 0 -11 -11 -13 -25 -7 -33 10 -32
22 1 9 22 13 24 26 14 11 -10 18 -10 26 -2 19 19 28 14 19 -11 -5 -13 -6 -29
-1 -36 5 -9 11 -3 18 18 6 17 16 31 23 31 6 0 9 -6 6 -14 -3 -8 -1 -17 6 -20
9 -3 9 -5 0 -5 -7 -1 -13 -13 -13 -28 0 -37 22 -14 24 24 1 20 7 30 19 30 14
2 15 -2 7 -18 -14 -25 -2 -46 13 -24 7 8 23 17 37 20 22 4 23 3 8 -9 -10 -7
-15 -16 -11 -20 4 -4 1 -11 -6 -16 -9 -5 -11 -15 -6 -26 6 -16 10 -12 26 24
10 23 21 42 25 42 3 0 3 -7 0 -15 -9 -24 23 -31 39 -9 12 17 13 15 9 -18 -3
-29 -1 -38 11 -38 8 0 15 9 15 19 0 28 17 35 30 14 8 -13 13 -14 16 -5 10 23
24 12 24 -18 0 -34 15 -40 25 -11 3 11 13 25 22 33 15 12 16 10 9 -14 -4 -18
-2 -28 4 -28 6 0 8 5 5 10 -3 6 -2 10 4 10 5 0 17 3 27 7 14 5 16 2 10 -20 -7
-29 10 -39 20 -12 12 30 30 16 26 -20 -3 -21 0 -35 7 -35 10 0 16 25 13 61 -1
9 5 16 11 16 9 0 12 -10 9 -30 -4 -25 -2 -28 19 -25 18 2 24 -2 23 -14 -1 -14
2 -15 17 -5 10 6 20 18 21 26 2 10 16 16 36 17 29 2 32 -1 32 -28 0 -34 23
-34 28 -1 4 26 28 37 36 16 5 -12 9 -13 21 -3 13 11 15 7 15 -21 0 -23 3 -30
9 -20 7 11 9 11 14 0 3 -9 6 -6 6 7 1 29 10 35 32 21 16 -10 21 -9 29 3 7 11
10 7 10 -17 0 -43 16 -50 34 -15 13 24 20 28 46 24 24 -3 30 -9 28 -25 -4 -29
15 -31 44 -4 17 16 31 21 44 16 17 -7 15 -9 -16 -13 -5 0 -10 -4 -10 -8 0 -5
0 -19 0 -33 0 -14 5 -25 11 -25 6 0 8 8 4 19 -8 26 20 48 33 25 9 -16 11 -16
23 4 10 16 16 18 26 10 8 -6 16 -8 20 -4 3 3 0 6 -8 6 -11 0 -11 2 1 10 26 17
40 11 40 -15 0 -25 23 -35 35 -15 3 5 12 7 20 4 10 -4 13 -14 9 -33 -4 -14 -3
-22 2 -18 14 13 16 57 2 57 -8 0 -6 5 5 11 14 8 22 6 37 -13 13 -15 22 -19 27
-12 10 13 47 34 62 34 6 0 11 -7 11 -15 0 -28 30 -28 56 0 27 30 54 27 54 -5
0 -29 27 -25 34 5 5 21 12 25 41 25 28 0 35 -4 35 -20 0 -11 7 -20 15 -20 9 0
15 9 15 25 0 22 3 25 25 19 15 -4 25 -2 25 5 0 24 21 9 27 -19 3 -17 12 -30
21 -30 11 0 13 7 9 30 -4 17 -2 30 3 30 6 0 10 -6 10 -13 0 -10 14 -14 45 -15
40 0 45 2 45 23 0 18 7 24 31 27 20 3 32 0 35 -9 15 -48 15 -48 24 -33 6 8 10
25 10 37 0 12 5 25 10 28 6 3 10 1 10 -6 0 -7 9 -9 22 -6 12 3 30 2 40 -4 12
-6 18 -6 18 1 0 5 9 10 20 10 21 0 40 27 33 48 -3 6 2 12 11 12 8 0 19 8 25
18 5 9 13 17 18 17 4 0 7 6 6 14 -1 9 2 10 10 2 8 -8 8 -14 0 -22 -12 -12 -6
-49 8 -49 5 0 7 11 3 24 -3 13 -1 26 4 30 5 3 7 18 4 32 -3 19 -1 25 7 20 6
-4 11 -16 11 -28 0 -14 5 -18 16 -14 9 3 17 6 20 6 2 0 -1 12 -6 26 -9 22 -7
27 10 31 11 3 20 10 21 17 1 6 2 20 3 31 0 11 7 19 14 17 7 -1 20 14 28 33 8
19 16 35 18 35 5 0 -1 -48 -9 -59 -3 -6 0 -11 8 -11 8 0 17 9 20 20 3 11 1 20
-4 20 -6 0 -6 7 0 18 9 16 6 18 -27 16 -20 -1 -64 -8 -97 -14 -45 -9 -185 -11
-545 -7 -451 5 -492 7 -585 27 -55 12 -125 32 -155 45 -113 47 -123 46 -368
-49 -81 -32 -103 -36 -181 -36 -369 0 -686 176 -1026 570 -27 32 -64 47 -78
33z m-187 -218 c0 -8 -7 -15 -16 -15 -14 0 -14 3 -4 15 7 8 14 15 16 15 2 0 4
-7 4 -15z m1281 -508 c-13 -12 -20 -15 -15 -7 12 22 28 39 33 34 3 -3 -6 -15
-18 -27z m-26 13 c-3 -5 -11 -10 -16 -10 -6 0 -7 5 -4 10 3 6 11 10 16 10 6 0
7 -4 4 -10z m-74 -43 c-10 -9 -11 -8 -5 6 3 10 9 15 12 12 3 -3 0 -11 -7 -18z
m49 19 c0 -2 -8 -10 -17 -17 -16 -13 -17 -12 -4 4 13 16 21 21 21 13z m1730
-85 c0 -5 -7 -17 -16 -25 -16 -17 -28 -21 -21 -8 2 4 7 15 10 25 7 18 27 24
27 8z"/>
<path d="M4575 5010 c-3 -5 -1 -10 4 -10 6 0 11 5 11 10 0 6 -2 10 -4 10 -3 0
-8 -4 -11 -10z"/>
<path d="M4484 4959 c-19 -22 -19 -22 4 -8 12 8 22 17 22 21 0 12 -6 9 -26
-13z"/>
<path d="M4600 4559 c0 -5 5 -7 10 -4 6 3 10 8 10 11 0 2 -4 4 -10 4 -5 0 -10
-5 -10 -11z"/>
<path d="M7765 4500 c-3 -5 -1 -10 4 -10 6 0 11 5 11 10 0 6 -2 10 -4 10 -3 0
-8 -4 -11 -10z"/>
<path d="M4732 4454 c-7 -8 -8 -14 -3 -14 10 0 25 19 20 25 -2 1 -10 -3 -17
-11z"/>
<path d="M4810 4461 c0 -5 -3 -16 -6 -25 -10 -26 12 -18 24 9 10 21 9 25 -3
25 -8 0 -15 -4 -15 -9z"/>
<path d="M4761 4404 c0 -11 3 -14 6 -6 3 7 2 16 -1 19 -3 4 -6 -2 -5 -13z"/>
<path d="M4933 4405 c-3 -9 -3 -18 -1 -21 3 -3 8 4 11 16 6 23 -1 27 -10 5z"/>
<path d="M4836 4394 c-4 -9 -4 -19 -1 -22 2 -3 7 3 11 12 4 9 4 19 1 22 -2 3
-7 -3 -11 -12z"/>
<path d="M7696 4373 c-6 -14 -5 -15 5 -6 7 7 10 15 7 18 -3 3 -9 -2 -12 -12z"/>
<path d="M4801 4364 c0 -11 3 -14 6 -6 3 7 2 16 -1 19 -3 4 -6 -2 -5 -13z"/>
<path d="M4957 4351 c-4 -17 -3 -21 5 -13 5 5 8 16 6 23 -3 8 -7 3 -11 -10z"/>
<path d="M5050 4341 c0 -7 -4 -9 -10 -6 -5 3 -10 2 -10 -4 0 -5 4 -12 9 -15
10 -6 25 24 16 32 -3 3 -5 0 -5 -7z"/>
<path d="M5132 4334 c-7 -8 -12 -22 -9 -32 3 -13 7 -10 16 12 13 33 11 40 -7
20z"/>
<path d="M3757 4312 c-56 -62 -62 -250 -8 -240 38 7 78 156 60 222 -11 40 -27
45 -52 18z"/>
<path d="M4825 4321 c-3 -5 -1 -12 5 -16 5 -3 10 1 10 9 0 18 -6 21 -15 7z"/>
<path d="M7655 4319 c-4 -6 -5 -12 -2 -15 2 -3 7 2 10 11 7 17 1 20 -8 4z"/>
<path d="M5347 4240 c-3 -11 -1 -20 4 -20 5 0 9 9 9 20 0 11 -2 20 -4 20 -2 0
-6 -9 -9 -20z"/>
<path d="M5301 4204 c0 -11 3 -14 6 -6 3 7 2 16 -1 19 -3 4 -6 -2 -5 -13z"/>
<path d="M5390 4211 c0 -6 4 -13 10 -16 6 -3 7 1 4 9 -7 18 -14 21 -14 7z"/>
<path d="M5470 4180 c0 -5 7 -10 16 -10 8 0 12 5 9 10 -3 6 -10 10 -16 10 -5
0 -9 -4 -9 -10z"/>
<path d="M5576 4155 c4 -8 8 -15 10 -15 2 0 4 7 4 15 0 8 -4 15 -10 15 -5 0
-7 -7 -4 -15z"/>
<path d="M5205 4150 c-3 -5 -1 -10 4 -10 6 0 11 5 11 10 0 6 -2 10 -4 10 -3 0
-8 -4 -11 -10z"/>
<path d="M5681 4144 c0 -11 3 -14 6 -6 3 7 2 16 -1 19 -3 4 -6 -2 -5 -13z"/>
<path d="M5776 4152 c-2 -4 -1 -14 5 -22 7 -12 9 -10 9 8 0 23 -5 28 -14 14z"/>
<path d="M7420 4140 c0 -5 5 -10 11 -10 5 0 7 5 4 10 -3 6 -8 10 -11 10 -2 0
-4 -4 -4 -10z"/>
<path d="M6013 4100 c-1 -17 2 -30 7 -30 6 0 10 9 10 20 0 11 0 23 1 27 0 4
-3 9 -8 10 -4 2 -9 -11 -10 -27z"/>
<path d="M6110 4091 c0 -17 5 -33 10 -36 6 -3 10 0 10 7 0 7 3 23 6 36 5 16 2
22 -10 22 -11 0 -16 -9 -16 -29z"/>
<path d="M7276 4095 c-9 -23 -8 -25 9 -25 17 0 19 9 6 28 -7 11 -10 10 -15 -3z"/>
<path d="M5570 4091 c0 -5 5 -13 10 -16 6 -3 10 -2 10 4 0 5 -4 13 -10 16 -5
3 -10 2 -10 -4z"/>
<path d="M6212 4075 c-1 -17 3 -25 14 -25 10 0 14 7 12 22 -4 31 -23 33 -26 3z"/>
<path d="M6325 4092 c-5 -4 -9 -14 -9 -22 1 -8 2 -21 3 -27 2 -27 19 -11 23
22 4 36 1 41 -17 27z"/>
<path d="M7380 4090 c0 -5 5 -10 11 -10 5 0 7 5 4 10 -3 6 -8 10 -11 10 -2 0
-4 -4 -4 -10z"/>
<path d="M5665 4080 c-8 -13 -1 -24 14 -19 6 3 7 10 2 18 -6 10 -10 10 -16 1z"/>
<path d="M5770 4070 c0 -11 4 -20 9 -20 5 0 7 9 4 20 -3 11 -7 20 -9 20 -2 0
-4 -9 -4 -20z"/>
<path d="M5917 4084 c-4 -4 -7 -14 -7 -23 0 -11 3 -12 11 -4 6 6 10 16 7 23
-2 6 -7 8 -11 4z"/>
<path d="M7595 4070 c-3 -5 -1 -18 4 -27 9 -16 10 -14 11 10 0 28 -5 34 -15
17z"/>
<path d="M5966 4061 c-4 -7 -5 -15 -2 -18 9 -9 19 4 14 18 -4 11 -6 11 -12 0z"/>
<path d="M6530 4062 c0 -6 -2 -17 -5 -24 -4 -9 2 -14 15 -14 15 0 20 6 18 20
-3 20 -28 36 -28 18z"/>
<path d="M6742 4040 c0 -20 3 -27 13 -24 16 7 16 42 -1 48 -6 2 -11 -7 -12
-24z"/>
<path d="M6848 4063 c6 -2 12 -13 12 -24 0 -10 4 -19 9 -19 4 0 6 11 3 25 -2
15 -11 25 -21 24 -10 0 -11 -2 -3 -6z"/>
<path d="M7642 4036 c1 -19 4 -33 8 -31 10 6 9 54 -1 61 -5 2 -8 -11 -7 -30z"/>
<path d="M6071 4044 c0 -11 3 -14 6 -6 3 7 2 16 -1 19 -3 4 -6 -2 -5 -13z"/>
<path d="M7075 4050 c-3 -5 -1 -10 4 -10 6 0 11 5 11 10 0 6 -2 10 -4 10 -3 0
-8 -4 -11 -10z"/>
<path d="M5716 4035 c4 -8 8 -15 10 -15 2 0 4 7 4 15 0 8 -4 15 -10 15 -5 0
-7 -7 -4 -15z"/>
<path d="M6965 4040 c3 -5 8 -10 11 -10 2 0 4 5 4 10 0 6 -5 10 -11 10 -5 0
-7 -4 -4 -10z"/>
<path d="M6160 4031 c0 -6 5 -13 10 -16 6 -3 10 1 10 9 0 9 -4 16 -10 16 -5 0
-10 -4 -10 -9z"/>
<path d="M5575 4020 c-3 -5 -1 -10 4 -10 6 0 11 5 11 10 0 6 -2 10 -4 10 -3 0
-8 -4 -11 -10z"/>
<path d="M6016 4015 c-3 -8 -1 -15 4 -15 6 0 10 7 10 15 0 8 -2 15 -4 15 -2 0
-6 -7 -10 -15z"/>
<path d="M6367 4015 c-4 -8 -3 -16 1 -19 13 -8 35 11 28 23 -10 15 -23 14 -29
-4z"/>
<path d="M6481 4014 c0 -11 3 -14 6 -6 3 7 2 16 -1 19 -3 4 -6 -2 -5 -13z"/>
<path d="M6113 4013 c-18 -7 -16 -23 2 -23 8 0 15 7 15 15 0 8 -1 15 -2 14 -2
0 -9 -3 -15 -6z"/>
<path d="M5917 4003 c-4 -3 -7 -11 -7 -17 0 -6 5 -5 12 2 6 6 9 14 7 17 -3 3
-9 2 -12 -2z"/>
<path d="M6590 4000 c0 -5 5 -10 10 -10 6 0 10 5 10 10 0 6 -4 10 -10 10 -5 0
-10 -4 -10 -10z"/>
<path d="M6696 4001 c-4 -7 -5 -15 -2 -18 9 -9 19 4 14 18 -4 11 -6 11 -12 0z"/>
<path d="M6796 3995 c-3 -9 0 -15 9 -15 16 0 20 16 6 24 -5 3 -11 -1 -15 -9z"/>
<path d="M6907 4003 c-12 -12 -7 -22 8 -17 8 4 15 10 15 15 0 11 -14 12 -23 2z"/>
<path d="M7020 4000 c0 -5 5 -10 10 -10 6 0 10 5 10 10 0 6 -4 10 -10 10 -5 0
-10 -4 -10 -10z"/>
<path d="M7551 3994 c0 -11 3 -14 6 -6 3 7 2 16 -1 19 -3 4 -6 -2 -5 -13z"/>
<path d="M5760 3991 c0 -6 5 -13 10 -16 6 -3 10 1 10 9 0 9 -4 16 -10 16 -5 0
-10 -4 -10 -9z"/>
<path d="M5866 3985 c-9 -23 -8 -25 9 -25 17 0 19 9 6 28 -7 11 -10 10 -15 -3z"/>
<path d="M5966 3991 c-4 -7 -5 -15 -2 -18 9 -9 19 4 14 18 -4 11 -6 11 -12 0z"/>
<path d="M6210 3990 c0 -5 7 -10 16 -10 8 0 12 5 9 10 -3 6 -10 10 -16 10 -5
0 -9 -4 -9 -10z"/>
<path d="M6060 3976 c0 -9 5 -16 10 -16 6 0 10 4 10 9 0 6 -4 13 -10 16 -5 3
-10 -1 -10 -9z"/>
<path d="M6165 3977 c-4 -10 -5 -21 -1 -24 10 -10 18 4 13 24 -4 17 -4 17 -12
0z"/>
<path d="M6320 3980 c-13 -8 -12 -10 3 -10 9 0 17 5 17 10 0 12 -1 12 -20 0z"/>
<path d="M6430 3976 c0 -9 5 -16 10 -16 6 0 10 4 10 9 0 6 -4 13 -10 16 -5 3
-10 -1 -10 -9z"/>
<path d="M5726 3963 c-6 -14 -5 -15 5 -6 7 7 10 15 7 18 -3 3 -9 -2 -12 -12z"/>
<path d="M5823 3959 c-1 -10 2 -19 8 -19 11 0 12 27 1 34 -4 2 -9 -4 -9 -15z"/>
<path d="M6963 3965 c0 -8 4 -15 9 -15 4 0 8 7 8 15 0 8 -4 15 -8 15 -5 0 -9
-7 -9 -15z"/>
<path d="M5575 3960 c-3 -5 -1 -10 4 -10 6 0 11 5 11 10 0 6 -2 10 -4 10 -3 0
-8 -4 -11 -10z"/>
<path d="M6010 3955 c0 -8 5 -15 10 -15 6 0 10 7 10 15 0 8 -4 15 -10 15 -5 0
-10 -7 -10 -15z"/>
<path d="M6745 3960 c3 -5 8 -10 11 -10 2 0 4 5 4 10 0 6 -5 10 -11 10 -5 0
-7 -4 -4 -10z"/>
<path d="M7506 3963 c-9 -10 -7 -43 3 -43 11 0 21 39 11 45 -4 2 -10 2 -14 -2z"/>
<path d="M5675 3951 c-3 -5 -1 -12 5 -16 5 -3 10 1 10 9 0 18 -6 21 -15 7z"/>
<path d="M5914 3947 c-8 -21 2 -35 16 -21 5 5 6 15 0 24 -8 12 -10 12 -16 -3z"/>
<path d="M6104 3949 c-7 -12 15 -31 28 -23 9 6 -1 34 -12 34 -5 0 -12 -5 -16
-11z"/>
<path d="M6260 3950 c0 -5 5 -10 10 -10 6 0 10 5 10 10 0 6 -4 10 -10 10 -5 0
-10 -4 -10 -10z"/>
<path d="M6376 3953 c-11 -11 -6 -23 9 -23 8 0 15 4 15 9 0 13 -16 22 -24 14z"/>
<path d="M7130 3950 c0 -5 5 -10 11 -10 5 0 7 5 4 10 -3 6 -8 10 -11 10 -2 0
-4 -4 -4 -10z"/>
<path d="M6475 3940 c-3 -5 1 -10 10 -10 9 0 13 5 10 10 -3 6 -8 10 -10 10 -2
0 -7 -4 -10 -10z"/>
<path d="M7651 3934 c0 -11 3 -14 6 -6 3 7 2 16 -1 19 -3 4 -6 -2 -5 -13z"/>
<path d="M5631 3924 c0 -11 3 -14 6 -6 3 7 2 16 -1 19 -3 4 -6 -2 -5 -13z"/>
<path d="M5760 3928 c0 -4 7 -8 15 -8 8 0 15 4 15 8 0 5 -7 9 -15 9 -8 0 -15
-4 -15 -9z"/>
<path d="M5870 3926 c0 -8 5 -18 10 -21 6 -3 10 3 10 14 0 12 -4 21 -10 21 -5
0 -10 -6 -10 -14z"/>
<path d="M5965 3889 c4 -37 1 -57 -11 -72 l-16 -22 5 23 c3 12 0 22 -6 22 -6
0 -18 7 -28 16 -18 16 -39 12 -39 -7 0 -6 8 -8 19 -4 14 4 20 0 25 -17 8 -32
8 -38 -4 -38 -5 0 -10 7 -10 15 0 8 -4 15 -10 15 -5 0 -10 -12 -10 -26 0 -21
4 -24 20 -19 11 4 20 2 20 -4 0 -6 -9 -11 -20 -11 -14 0 -20 -7 -20 -21 0 -18
-2 -19 -15 -9 -8 7 -15 23 -15 35 0 13 -6 25 -14 28 -9 4 -13 0 -11 -11 2 -9
4 -17 5 -17 1 0 2 -17 4 -37 2 -21 -1 -38 -6 -38 -4 0 -8 7 -8 15 0 8 -7 15
-15 15 -24 0 -17 -30 10 -40 25 -9 35 -40 14 -40 -6 0 -9 7 -5 15 4 10 -1 15
-15 15 -16 0 -19 -4 -14 -17 8 -21 8 -22 6 -45 0 -10 -6 -18 -12 -18 -5 0 -9
10 -7 22 2 11 -3 23 -11 26 -10 3 -12 -3 -6 -27 4 -17 3 -31 -2 -30 -15 4 -60
-19 -87 -45 -16 -14 -35 -23 -44 -19 -14 4 -14 3 -3 -5 11 -8 10 -15 -8 -40
-18 -25 -43 -111 -43 -147 0 -42 15 -130 27 -160 9 -20 13 -40 10 -46 -4 -5 1
-12 9 -15 8 -3 18 -15 22 -26 14 -45 161 -194 219 -223 22 -10 46 -24 53 -29
8 -6 22 -11 32 -13 9 -1 30 -8 46 -14 16 -7 46 -12 67 -12 20 0 37 -4 37 -9 0
-5 10 -2 22 6 12 9 30 16 40 16 18 0 81 32 108 54 8 7 23 16 33 19 10 4 15 12
12 18 -5 7 3 10 21 7 25 -3 29 1 32 24 3 22 0 27 -12 22 -9 -3 -16 -2 -16 4 0
12 30 21 48 14 10 -3 10 -7 1 -18 -9 -11 -8 -14 2 -14 43 1 42 32 -1 43 -33 8
-39 57 -8 57 17 0 18 -3 9 -14 -15 -17 2 -31 23 -19 17 9 4 32 -29 51 -19 11
-19 11 6 12 32 0 38 6 32 31 -4 13 -12 19 -23 16 -9 -2 -17 1 -17 8 0 7 5 12
11 12 36 -1 56 4 56 14 0 6 -7 8 -16 5 -12 -4 -14 -1 -9 13 4 14 0 21 -12 23
-15 3 -12 7 12 21 21 11 24 16 13 17 -10 0 -18 5 -18 10 0 6 11 8 27 4 21 -6
25 -4 20 9 -3 9 -1 18 6 20 7 2 -1 6 -16 9 -20 4 -27 2 -23 -7 4 -11 -13 -25
-29 -25 -1 0 5 16 13 35 11 23 19 31 24 22 5 -9 10 -9 19 0 9 9 8 16 -2 31 -8
11 -18 20 -24 20 -5 0 -11 4 -12 9 -2 5 12 9 32 9 26 0 34 -4 32 -15 -1 -8 6
-17 16 -19 26 -5 18 30 -9 42 -12 5 -27 18 -34 29 -12 20 -10 24 25 42 6 3 5
7 -3 11 -6 3 -10 10 -6 15 3 5 0 10 -5 10 -6 1 -15 3 -21 4 -5 1 -15 3 -21 4
-5 0 -7 6 -4 11 4 6 10 8 15 5 5 -3 18 -1 29 5 13 7 22 7 26 0 3 -5 2 -10 -4
-10 -6 0 -8 -7 -5 -15 10 -25 34 -17 34 10 0 18 -7 26 -25 31 -14 3 -25 12
-25 20 0 8 -9 14 -19 14 -23 0 -36 16 -21 25 5 3 10 1 10 -5 0 -6 10 -8 25 -4
14 3 25 2 24 -2 -4 -22 2 -34 16 -34 17 0 21 35 5 45 -15 9 -2 25 20 25 13 0
17 -5 14 -15 -4 -9 0 -15 10 -15 21 0 21 36 0 44 -9 3 -20 4 -25 0 -5 -3 -9
-1 -9 4 0 5 -14 12 -31 16 -17 3 -28 10 -24 15 3 5 -12 12 -32 14 -35 3 -34 4
10 5 30 1 46 -2 42 -8 -3 -5 3 -10 14 -10 14 0 19 5 15 15 -4 8 -17 15 -30 15
-14 0 -27 7 -30 15 -4 8 -10 13 -14 10 -12 -8 -41 6 -34 16 3 5 0 9 -6 9 -6 0
-8 10 -4 24 5 21 1 25 -25 31 -17 4 -29 10 -26 14 2 4 -17 18 -43 31 -26 13
-51 30 -55 37 -14 23 -38 -4 -31 -33 4 -15 2 -24 -5 -24 -6 0 -11 9 -11 20 0
13 -7 20 -19 20 -11 0 -26 8 -33 18 -7 10 -21 21 -30 25 -13 5 -16 1 -12 -20
4 -23 3 -25 -11 -13 -8 7 -15 27 -15 44 -1 26 -2 28 -11 13 -6 -10 -8 -25 -5
-33 3 -8 1 -14 -5 -14 -5 0 -12 7 -15 15 -8 19 -34 20 -34 1 0 -8 -7 -17 -16
-20 -13 -5 -15 -2 -11 15 6 24 -1 49 -14 49 -5 0 -7 -23 -4 -51z m60 -29 c3
-5 -1 -10 -10 -10 -9 0 -13 5 -10 10 3 6 8 10 10 10 2 0 7 -4 10 -10z m37 -32
c-5 -21 -6 -21 -12 -2 -8 21 -3 37 10 29 4 -3 6 -15 2 -27z m98 7 c0 -12 -5
-13 -17 -7 -10 5 -25 12 -33 15 -8 3 0 6 18 6 22 1 32 -4 32 -14z m126 -25
c13 0 24 -4 24 -9 0 -14 -54 1 -67 18 -9 12 -9 18 0 23 8 5 13 0 15 -12 2 -14
11 -20 28 -20z m86 -45 c3 -15 1 -22 -5 -18 -6 4 -7 1 -1 -8 12 -20 12 -69 -1
-69 -6 0 -11 18 -11 40 -1 22 -7 46 -13 54 -9 11 -9 15 1 19 23 9 26 8 30 -18z
m-58 -21 c8 -21 8 -24 -3 -24 -5 0 -11 9 -14 20 -6 24 8 27 17 4z m-441 -48
c4 -10 1 -13 -8 -9 -8 3 -12 9 -9 14 7 12 11 11 17 -5z m557 -2 c0 -2 -9 -4
-21 -4 -11 0 -18 4 -14 10 5 8 35 3 35 -6z m-110 -4 c0 -5 -2 -10 -4 -10 -3 0
-8 5 -11 10 -3 6 -1 10 4 10 6 0 11 -4 11 -10z m120 -60 c0 -5 -7 -10 -16 -10
-8 0 -12 5 -9 10 3 6 10 10 16 10 5 0 9 -4 9 -10z m50 -10 c0 -5 -5 -12 -12
-16 -7 -4 -8 -3 -4 4 4 7 1 12 -9 12 -9 0 -14 4 -10 10 6 10 35 2 35 -10z
m-50 -90 c0 -5 -4 -10 -9 -10 -6 0 -13 5 -16 10 -3 6 1 10 9 10 9 0 16 -4 16
-10z m-5 -70 c-3 -5 -11 -10 -16 -10 -6 0 -7 5 -4 10 3 6 11 10 16 10 6 0 7
-4 4 -10z m2 -50 c0 -17 -4 -29 -9 -28 -5 2 -9 7 -9 11 1 4 1 16 1 27 0 11 4
20 8 20 5 0 9 -14 9 -30z m-3 -90 c-22 -9 -29 -6 -20 9 4 6 14 7 23 4 15 -6
14 -7 -3 -13z m-94 -400 c0 -5 -5 -10 -11 -10 -5 0 -7 5 -4 10 3 6 8 10 11 10
2 0 4 -4 4 -10z"/>
<path d="M6210 3926 c0 -9 7 -16 16 -16 9 0 14 5 12 12 -6 18 -28 21 -28 4z"/>
<path d="M6690 3930 c0 -5 5 -10 10 -10 6 0 10 5 10 10 0 6 -4 10 -10 10 -5 0
-10 -4 -10 -10z"/>
<path d="M7553 3920 c-1 -11 2 -20 8 -20 5 0 9 9 9 20 0 11 -4 20 -8 20 -4 0
-8 -9 -9 -20z"/>
<path d="M6165 3922 c4 -7 2 -19 -4 -26 -9 -10 -7 -15 5 -20 28 -11 34 7 13
34 -12 14 -18 19 -14 12z"/>
<path d="M6320 3920 c0 -5 5 -10 10 -10 6 0 10 5 10 10 0 6 -4 10 -10 10 -5 0
-10 -4 -10 -10z"/>
<path d="M7455 3914 c2 -10 4 -23 4 -28 1 -6 6 -5 13 2 10 10 9 16 -4 29 -15
15 -16 15 -13 -3z"/>
<path d="M5725 3911 c-3 -5 -1 -12 5 -16 5 -3 10 1 10 9 0 18 -6 21 -15 7z"/>
<path d="M5825 3897 c2 -26 17 -29 21 -5 1 9 -3 19 -10 21 -8 3 -12 -3 -11
-16z"/>
<path d="M6260 3903 c0 -25 15 -38 25 -22 4 6 0 18 -9 27 -15 15 -16 15 -16
-5z"/>
<path d="M6425 3910 c-3 -5 -1 -10 4 -10 6 0 11 5 11 10 0 6 -2 10 -4 10 -3 0
-8 -4 -11 -10z"/>
<path d="M6530 3900 c0 -5 5 -10 11 -10 5 0 7 5 4 10 -3 6 -8 10 -11 10 -2 0
-4 -4 -4 -10z"/>
<path d="M6635 3900 c-3 -5 -2 -10 4 -10 5 0 13 5 16 10 3 6 2 10 -4 10 -5 0
-13 -4 -16 -10z"/>
<path d="M6750 3900 c0 -5 5 -10 11 -10 5 0 7 5 4 10 -3 6 -8 10 -11 10 -2 0
-4 -4 -4 -10z"/>
<path d="M5900 3892 c0 -4 9 -13 19 -19 16 -10 18 -9 14 8 -5 18 -33 28 -33
11z"/>
<path d="M6372 3884 c1 -9 9 -19 16 -22 9 -3 13 2 10 14 -1 9 -9 19 -16 22 -9
3 -13 -2 -10 -14z"/>
<path d="M8045 3884 c-65 -14 -188 -67 -226 -97 -15 -11 -15 -20 -3 -86 8 -41
15 -100 17 -132 1 -33 5 -59 9 -59 4 0 3 -12 -3 -27 -7 -19 -7 -29 0 -31 6 -2
8 -16 4 -33 -3 -18 -1 -29 6 -29 8 0 8 -6 -1 -20 -11 -17 -10 -22 0 -29 12 -7
12 -12 0 -30 -11 -18 -11 -23 1 -30 10 -7 11 -13 1 -30 -6 -12 -9 -27 -6 -34
2 -7 5 -5 5 5 1 9 6 20 11 23 6 4 10 3 9 -2 -9 -51 56 -74 211 -74 118 0 259
22 490 76 85 20 263 60 395 90 309 68 343 81 422 160 44 44 63 72 68 97 13 70
-48 159 -143 207 -52 26 -124 39 -302 51 -85 6 -259 20 -387 30 -273 23 -479
25 -578 4z"/>
<path d="M5776 3883 c-11 -11 -7 -20 9 -20 8 0 15 4 15 8 0 11 -16 20 -24 12z"/>
<path d="M6470 3880 c0 -5 7 -10 15 -10 8 0 15 5 15 10 0 6 -7 10 -15 10 -8 0
-15 -4 -15 -10z"/>
<path d="M6585 3880 c-3 -5 1 -10 10 -10 9 0 13 5 10 10 -3 6 -8 10 -10 10 -2
0 -7 -4 -10 -10z"/>
<path d="M6800 3874 c0 -8 5 -12 10 -9 6 4 8 11 5 16 -9 14 -15 11 -15 -7z"/>
<path d="M6905 3880 c-3 -5 1 -10 9 -10 9 0 16 5 16 10 0 6 -4 10 -9 10 -6 0
-13 -4 -16 -10z"/>
<path d="M5530 3870 c0 -5 5 -10 10 -10 6 0 10 5 10 10 0 6 -4 10 -10 10 -5 0
-10 -4 -10 -10z"/>
<path d="M6317 3874 c7 -3 9 -12 6 -20 -3 -10 2 -14 17 -14 22 0 23 1 5 20
-10 11 -23 20 -29 19 -7 0 -7 -2 1 -5z"/>
<path d="M6690 3870 c0 -5 5 -10 10 -10 6 0 10 5 10 10 0 6 -4 10 -10 10 -5 0
-10 -4 -10 -10z"/>
<path d="M5635 3860 c-3 -5 -1 -10 4 -10 6 0 11 5 11 10 0 6 -2 10 -4 10 -3 0
-8 -4 -11 -10z"/>
<path d="M6433 3855 c0 -8 6 -15 13 -15 8 0 11 6 8 15 -4 8 -9 15 -13 15 -4 0
-8 -7 -8 -15z"/>
<path d="M6970 3860 c0 -5 5 -10 11 -10 5 0 7 5 4 10 -3 6 -8 10 -11 10 -2 0
-4 -4 -4 -10z"/>
<path d="M7410 3854 c0 -8 5 -12 10 -9 6 3 10 10 10 16 0 5 -4 9 -10 9 -5 0
-10 -7 -10 -16z"/>
<path d="M7500 3860 c0 -5 5 -10 10 -10 6 0 10 5 10 10 0 6 -4 10 -10 10 -5 0
-10 -4 -10 -10z"/>
<path d="M5726 3851 c-4 -5 -2 -12 3 -15 5 -4 12 -2 15 3 4 5 2 12 -3 15 -5 4
-12 2 -15 -3z"/>
<path d="M6526 3844 c-4 -9 1 -14 14 -14 23 0 27 15 6 23 -8 3 -17 -1 -20 -9z"/>
<path d="M7125 3850 c-3 -5 -1 -10 4 -10 6 0 11 5 11 10 0 6 -2 10 -4 10 -3 0
-8 -4 -11 -10z"/>
<path d="M5827 3843 c-12 -11 -8 -23 8 -23 8 0 15 7 15 15 0 16 -12 20 -23 8z"/>
<path d="M6370 3831 c0 -11 4 -22 9 -25 11 -7 20 14 13 32 -7 19 -22 14 -22
-7z"/>
<path d="M6630 3840 c0 -5 7 -10 15 -10 8 0 15 5 15 10 0 6 -7 10 -15 10 -8 0
-15 -4 -15 -10z"/>
<path d="M7170 3839 c0 -5 5 -7 10 -4 6 3 10 8 10 11 0 2 -4 4 -10 4 -5 0 -10
-5 -10 -11z"/>
<path d="M7315 3840 c-3 -5 1 -10 9 -10 9 0 16 5 16 10 0 6 -4 10 -9 10 -6 0
-13 -4 -16 -10z"/>
<path d="M5784 3833 c4 -6 2 -14 -4 -18 -15 -9 -12 -25 4 -25 23 0 27 15 10
36 -9 10 -13 14 -10 7z"/>
<path d="M6584 3823 c2 -10 6 -17 10 -16 15 3 16 11 2 22 -12 10 -14 9 -12 -6z"/>
<path d="M6906 3832 c-3 -5 1 -9 9 -9 8 0 12 4 9 9 -3 4 -7 8 -9 8 -2 0 -6 -4
-9 -8z"/>
<path d="M6472 3818 c6 -18 28 -21 28 -4 0 9 -7 16 -16 16 -9 0 -14 -5 -12
-12z"/>
<path d="M6685 3820 c-3 -5 1 -10 9 -10 9 0 16 5 16 10 0 6 -4 10 -9 10 -6 0
-13 -4 -16 -10z"/>
<path d="M7065 3820 c-3 -5 -2 -10 4 -10 5 0 13 5 16 10 3 6 2 10 -4 10 -5 0
-13 -4 -16 -10z"/>
<path d="M7160 3800 c0 -13 -7 -20 -20 -20 -11 0 -23 -7 -26 -15 -4 -10 -14
-13 -30 -9 -18 5 -24 2 -24 -9 0 -9 -5 -19 -12 -23 -7 -4 -8 -3 -4 4 10 16 -9
15 -26 -1 -7 -7 -26 -18 -41 -25 -31 -13 -28 -31 6 -33 16 -1 14 -3 -8 -8 -20
-4 -31 -2 -33 6 -5 18 -19 16 -26 -3 -8 -21 1 -34 19 -27 23 8 17 -9 -11 -34
-27 -23 -25 -45 4 -42 30 3 37 -1 22 -11 -10 -6 -11 -10 -2 -10 6 0 12 -7 12
-15 0 -8 -4 -15 -10 -15 -5 0 -10 5 -10 10 0 6 -9 10 -20 10 -18 0 -19 -3 -10
-20 8 -14 17 -19 29 -15 14 4 20 -1 25 -21 5 -18 3 -30 -6 -35 -7 -5 -8 -9 -3
-9 6 0 11 -18 11 -40 1 -21 4 -51 8 -65 4 -14 2 -25 -3 -25 -6 0 -6 -12 1 -32
8 -23 8 -33 0 -36 -7 -2 -8 -12 -1 -32 7 -20 7 -35 -1 -49 -9 -17 -8 -22 4
-27 16 -6 11 -33 -8 -47 -7 -5 -6 -11 5 -20 12 -9 14 -18 7 -37 -6 -16 -5 -26
1 -28 15 -5 14 -42 -1 -42 -9 0 -9 -3 0 -12 17 -17 15 -36 -5 -56 -16 -16 -16
-17 0 -20 19 -4 22 -19 7 -42 -6 -9 -5 -19 2 -28 7 -8 8 -16 2 -20 -13 -10
-17 -42 -4 -42 16 0 12 -40 -5 -46 -8 -4 -15 -11 -15 -16 0 -6 7 -8 15 -4 18
7 20 -25 4 -56 -8 -15 -8 -19 0 -14 19 12 13 -36 -6 -50 -17 -13 -17 -13 0
-14 12 0 17 -8 17 -26 0 -17 -4 -23 -12 -18 -10 6 -10 4 -2 -7 14 -17 17 -105
4 -130 -7 -13 -6 -18 5 -21 13 -3 13 -6 1 -30 -12 -23 -12 -27 0 -30 12 -3 12
-7 0 -30 -13 -24 -13 -28 0 -28 18 0 18 -25 -1 -44 -8 -8 -15 -17 -15 -20 0
-3 7 -6 15 -6 18 0 21 -46 3 -53 -10 -4 -10 -7 0 -15 17 -12 13 -99 -5 -106
-7 -3 -13 -10 -13 -17 0 -6 7 -9 15 -5 11 4 15 -1 15 -19 0 -16 -6 -25 -15
-25 -8 0 -15 -8 -15 -17 0 -15 2 -16 10 -3 5 8 11 12 13 10 3 -3 8 -61 12
-130 4 -69 7 -132 8 -141 1 -8 12 -21 25 -27 22 -10 24 -9 18 11 -13 49 -31
618 -43 1397 l-6 425 34 2 c74 5 75 3 75 -94 -1 -128 21 -169 88 -160 26 3 41
-47 32 -107 -6 -41 -11 -47 -38 -54 -52 -13 -70 -48 -71 -135 0 -114 23 -152
87 -144 24 3 41 -56 32 -108 -6 -28 -15 -39 -44 -53 -53 -25 -63 -52 -60 -154
3 -99 16 -122 70 -123 29 0 33 -4 39 -34 4 -19 4 -53 0 -75 -5 -34 -11 -41
-39 -48 -50 -13 -65 -52 -60 -160 3 -79 6 -92 26 -108 15 -12 22 -29 22 -52 0
-72 53 -92 65 -24 10 50 -3 93 -33 117 -24 19 -27 27 -27 87 l0 67 38 18 c47
22 57 47 57 143 0 104 -17 134 -77 134 l-33 0 0 68 c0 69 10 92 40 92 9 0 25
9 36 21 16 18 19 37 19 119 0 83 -3 101 -20 120 -14 16 -27 20 -48 16 -23 -5
-29 -1 -37 20 -11 29 -13 78 -4 112 4 15 16 25 35 29 53 10 64 34 64 145 0 92
-2 101 -23 119 -16 12 -32 16 -51 13 -23 -5 -29 -2 -34 18 -8 29 -9 103 -1
111 3 3 27 -10 54 -29 26 -19 51 -34 56 -34 5 0 26 -11 46 -25 l38 -25 6 25
c4 17 13 25 29 25 69 0 280 103 238 117 -5 2 -65 40 -132 84 -88 58 -121 85
-117 95 4 11 1 14 -12 10 -12 -4 -25 1 -36 13 -10 11 -31 25 -47 32 -35 14
-22 29 25 29 21 0 27 4 22 16 -3 9 -6 18 -6 20 0 3 -12 9 -26 14 -14 6 -22 14
-19 20 4 6 -5 10 -19 10 -16 0 -26 6 -26 15 0 8 -5 15 -12 15 -6 0 -9 3 -6 6
4 3 15 1 25 -4 26 -14 53 2 35 20 -10 10 -14 10 -22 -1 -7 -12 -12 -12 -23 -3
-11 9 -16 7 -27 -12 -18 -35 -6 -60 25 -52 20 5 25 3 25 -12 0 -17 -4 -18 -34
-8 -19 6 -32 14 -30 18 2 3 0 9 -5 12 -4 3 -7 19 -5 36 3 21 -1 30 -11 30 -8
0 -15 -9 -15 -20z m-5 -39 c3 -5 2 -12 -3 -15 -5 -3 -9 1 -9 9 0 17 3 19 12 6z
m-52 -61 c-3 -12 -8 -19 -11 -16 -5 6 5 36 12 36 2 0 2 -9 -1 -20z m47 16 c0
-3 -4 -8 -10 -11 -5 -3 -10 -1 -10 4 0 6 5 11 10 11 6 0 10 -2 10 -4z m-97
-250 c6 -15 -1 -26 -15 -26 -5 0 -6 5 -2 11 4 8 0 8 -15 0 -18 -10 -21 -9 -21
9 0 14 7 20 24 20 13 0 26 -6 29 -14z m424 -50 c-2 -6 -21 -21 -43 -33 -46
-26 -44 -28 11 -8 51 18 65 18 65 1 0 -8 -22 -20 -52 -28 -53 -15 -83 -14 -72
3 3 5 -4 9 -15 9 -23 0 -41 22 -23 28 7 2 10 7 7 12 -7 11 75 36 103 32 13 -3
21 -10 19 -16z"/>
<path d="M7360 3810 c0 -5 4 -10 9 -10 6 0 13 5 16 10 3 6 -1 10 -9 10 -9 0
-16 -4 -16 -10z"/>
<path d="M6958 3803 c7 -3 16 -2 19 1 4 3 -2 6 -13 5 -11 0 -14 -3 -6 -6z"/>
<path d="M5736 3785 c4 -8 8 -15 10 -15 2 0 4 7 4 15 0 8 -4 15 -10 15 -5 0
-7 -7 -4 -15z"/>
<path d="M6417 3781 c-4 -17 -2 -18 14 -8 22 14 25 27 5 27 -7 0 -16 -9 -19
-19z"/>
<path d="M6530 3785 c0 -9 6 -12 15 -9 8 4 15 10 15 15 0 5 -7 9 -15 9 -8 0
-15 -7 -15 -15z"/>
<path d="M6635 3790 c-3 -5 1 -10 9 -10 9 0 16 5 16 10 0 6 -4 10 -9 10 -6 0
-13 -4 -16 -10z"/>
<path d="M6740 3790 c0 -5 5 -10 10 -10 6 0 10 5 10 10 0 6 -4 10 -10 10 -5 0
-10 -4 -10 -10z"/>
<path d="M6858 3793 c7 -3 16 -2 19 1 4 3 -2 6 -13 5 -11 0 -14 -3 -6 -6z"/>
<path d="M7015 3790 c-3 -6 1 -7 9 -4 18 7 21 14 7 14 -6 0 -13 -4 -16 -10z"/>
<path d="M7417 3793 c-4 -3 -7 -11 -7 -17 0 -6 5 -5 12 2 6 6 9 14 7 17 -3 3
-9 2 -12 -2z"/>
<path d="M6910 3780 c-13 -8 -12 -10 3 -10 9 0 17 5 17 10 0 12 -1 12 -20 0z"/>
<path d="M7316 3782 c-3 -6 -1 -14 5 -17 14 -9 20 -2 10 14 -6 8 -11 9 -15 3z"/>
<path d="M5695 3771 c-3 -5 -1 -12 5 -16 5 -3 10 1 10 9 0 18 -6 21 -15 7z"/>
<path d="M6490 3770 c0 -5 5 -10 11 -10 5 0 7 5 4 10 -3 6 -8 10 -11 10 -2 0
-4 -4 -4 -10z"/>
<path d="M6585 3769 c-9 -14 -2 -20 14 -10 8 6 9 11 3 15 -6 3 -14 1 -17 -5z"/>
<path d="M6695 3769 c-9 -14 -2 -20 14 -10 8 6 9 11 3 15 -6 3 -14 1 -17 -5z"/>
<path d="M6795 3770 c-3 -6 1 -7 9 -4 18 7 21 14 7 14 -6 0 -13 -4 -16 -10z"/>
<path d="M5783 3751 c-1 -14 3 -18 13 -14 16 6 14 25 -2 30 -5 2 -10 -6 -11
-16z"/>
<path d="M5740 3741 c0 -12 5 -21 10 -21 6 0 10 6 10 14 0 8 -4 18 -10 21 -5
3 -10 -3 -10 -14z"/>
<path d="M6426 3745 c-4 -10 1 -15 16 -15 17 0 18 2 8 15 -7 8 -14 15 -15 15
-2 0 -5 -7 -9 -15z"/>
<path d="M6535 3750 c-8 -13 -1 -24 14 -19 6 3 7 10 2 18 -6 10 -10 10 -16 1z"/>
<path d="M7366 3753 c-11 -11 -6 -23 9 -23 8 0 15 4 15 9 0 13 -16 22 -24 14z"/>
<path d="M6915 3740 c-3 -5 -1 -10 4 -10 6 0 11 5 11 10 0 6 -2 10 -4 10 -3 0
-8 -4 -11 -10z"/>
<path d="M6965 3730 c-3 -5 1 -10 10 -10 9 0 13 5 10 10 -3 6 -8 10 -10 10 -2
0 -7 -4 -10 -10z"/>
<path d="M5605 3720 c-3 -5 -1 -10 4 -10 6 0 11 5 11 10 0 6 -2 10 -4 10 -3 0
-8 -4 -11 -10z"/>
<path d="M5693 3715 c0 -8 6 -15 13 -15 8 0 11 6 8 15 -4 8 -9 15 -13 15 -4 0
-8 -7 -8 -15z"/>
<path d="M6475 3721 c-8 -14 10 -22 30 -15 13 5 14 8 3 15 -17 11 -26 11 -33
0z"/>
<path d="M6596 3722 c-3 -5 1 -9 9 -9 8 0 12 4 9 9 -3 4 -7 8 -9 8 -2 0 -6 -4
-9 -8z"/>
<path d="M6700 3720 c0 -5 5 -10 11 -10 5 0 7 5 4 10 -3 6 -8 10 -11 10 -2 0
-4 -4 -4 -10z"/>
<path d="M7415 3719 c-9 -14 -2 -20 14 -10 8 6 9 11 3 15 -6 3 -14 1 -17 -5z"/>
<path d="M6646 3705 c-3 -9 0 -15 8 -15 7 0 13 7 13 15 0 8 -4 15 -8 15 -4 0
-9 -7 -13 -15z"/>
<path d="M6756 3705 c-3 -8 -1 -15 4 -15 6 0 10 7 10 15 0 8 -2 15 -4 15 -2 0
-6 -7 -10 -15z"/>
<path d="M5644 3699 c-3 -6 -1 -16 5 -22 9 -9 10 -7 5 7 -6 15 -4 17 6 11 9
-5 11 -4 6 3 -9 15 -13 15 -22 1z"/>
<path d="M6910 3700 c0 -5 4 -10 9 -10 6 0 13 5 16 10 3 6 -1 10 -9 10 -9 0
-16 -4 -16 -10z"/>
<path d="M5746 3691 c-3 -5 1 -14 9 -21 12 -10 15 -10 15 3 0 19 -16 31 -24
18z"/>
<path d="M6540 3690 c0 -5 7 -10 15 -10 8 0 15 5 15 10 0 6 -7 10 -15 10 -8 0
-15 -4 -15 -10z"/>
<path d="M6800 3690 c20 -13 33 -13 25 0 -3 6 -14 10 -23 10 -15 0 -15 -2 -2
-10z"/>
<path d="M7368 3675 c2 -14 8 -22 13 -19 5 3 5 14 -1 25 -14 26 -18 24 -12 -6z"/>
<path d="M7750 3686 c0 -9 5 -16 10 -16 6 0 10 4 10 9 0 6 -4 13 -10 16 -5 3
-10 -1 -10 -9z"/>
<path d="M5510 3680 c0 -5 5 -10 10 -10 6 0 10 5 10 10 0 6 -4 10 -10 10 -5 0
-10 -4 -10 -10z"/>
<path d="M6590 3681 c0 -12 28 -22 35 -12 3 5 -2 12 -11 15 -21 8 -24 8 -24
-3z"/>
<path d="M6705 3680 c-3 -5 -1 -10 4 -10 6 0 11 5 11 10 0 6 -2 10 -4 10 -3 0
-8 -4 -11 -10z"/>
<path d="M5600 3670 c0 -5 5 -10 11 -10 5 0 7 5 4 10 -3 6 -8 10 -11 10 -2 0
-4 -4 -4 -10z"/>
<path d="M5707 3666 c-4 -10 -5 -21 -2 -24 9 -9 17 6 13 25 -3 17 -4 17 -11
-1z"/>
<path d="M6865 3670 c-3 -5 -1 -10 4 -10 6 0 11 5 11 10 0 6 -2 10 -4 10 -3 0
-8 -4 -11 -10z"/>
<path d="M7790 3664 c0 -8 5 -12 10 -9 6 3 10 10 10 16 0 5 -4 9 -10 9 -5 0
-10 -7 -10 -16z"/>
<path d="M5560 3661 c0 -6 4 -13 10 -16 6 -3 7 1 4 9 -7 18 -14 21 -14 7z"/>
<path d="M6536 3655 c4 -8 12 -15 20 -15 19 0 18 16 -2 24 -22 9 -24 8 -18 -9z"/>
<path d="M6650 3655 c0 -9 6 -12 15 -9 8 4 12 10 9 15 -8 14 -24 10 -24 -6z"/>
<path d="M5660 3645 c0 -8 4 -15 10 -15 5 0 7 7 4 15 -4 8 -8 15 -10 15 -2 0
-4 -7 -4 -15z"/>
<path d="M6810 3645 c0 -8 5 -15 10 -15 6 0 10 7 10 15 0 8 -4 15 -10 15 -5 0
-10 -7 -10 -15z"/>
<path d="M6595 3640 c3 -5 1 -10 -4 -10 -6 0 -11 -5 -11 -10 0 -6 18 -9 45 -7
50 5 74 17 32 17 -14 0 -29 5 -32 10 -3 6 -13 10 -21 10 -8 0 -12 -4 -9 -10z"/>
<path d="M6707 3643 c-15 -14 -6 -23 23 -23 22 0 28 -4 24 -15 -4 -10 0 -15
11 -15 12 0 15 5 11 16 -3 9 -6 18 -6 20 0 2 -9 4 -20 4 -11 0 -20 5 -20 10 0
11 -13 13 -23 3z"/>
<path d="M6857 3620 c5 -20 33 -29 33 -10 0 6 -5 10 -11 10 -5 0 -7 5 -4 10 3
6 0 10 -8 10 -10 0 -13 -7 -10 -20z"/>
<path d="M7795 3611 c-8 -27 -2 -36 13 -18 6 7 7 18 3 26 -7 10 -10 8 -16 -8z"/>
<path d="M5710 3606 c0 -9 5 -16 10 -16 6 0 10 4 10 9 0 6 -4 13 -10 16 -5 3
-10 -1 -10 -9z"/>
<path d="M6650 3593 c0 -7 7 -13 15 -13 8 0 15 6 15 13 0 8 -7 14 -15 14 -8 0
-15 -6 -15 -14z"/>
<path d="M7667 3593 c-4 -3 -7 -11 -7 -17 0 -6 5 -5 12 2 6 6 9 14 7 17 -3 3
-9 2 -12 -2z"/>
<path d="M5670 3580 c0 -5 5 -10 11 -10 5 0 7 5 4 10 -3 6 -8 10 -11 10 -2 0
-4 -4 -4 -10z"/>
<path d="M6595 3573 c-8 -23 -6 -33 9 -33 7 0 16 11 18 23 5 26 -17 34 -27 10z"/>
<path d="M6805 3579 c-10 -15 1 -23 20 -15 9 3 13 10 10 16 -8 13 -22 13 -30
-1z"/>
<path d="M5617 3564 c3 -7 9 -14 14 -14 14 0 10 17 -5 23 -10 4 -13 1 -9 -9z"/>
<path d="M6713 3573 c-18 -7 -16 -23 2 -23 8 0 15 7 15 15 0 8 -1 15 -2 14 -2
0 -9 -3 -15 -6z"/>
<path d="M6869 3578 c-6 -28 -6 -58 1 -58 11 0 19 49 9 56 -5 3 -9 4 -10 2z"/>
<path d="M6530 3549 c0 -5 4 -9 9 -9 5 0 7 -10 4 -21 -5 -19 -3 -21 25 -14 27
6 30 4 25 -14 -4 -16 -1 -21 16 -21 11 0 21 5 21 11 0 13 -25 39 -39 39 -5 0
-14 8 -19 17 -10 18 -42 27 -42 12z"/>
<path d="M6760 3538 c0 -16 4 -28 9 -28 18 0 20 17 6 36 -14 18 -14 18 -15 -8z"/>
<path d="M7460 3540 c0 -5 5 -10 11 -10 5 0 7 5 4 10 -3 6 -8 10 -11 10 -2 0
-4 -4 -4 -10z"/>
<path d="M6646 3525 c-4 -10 1 -15 14 -15 11 0 20 7 20 15 0 8 -6 15 -14 15
-8 0 -16 -7 -20 -15z"/>
<path d="M7660 3520 c0 -5 5 -10 10 -10 6 0 10 5 10 10 0 6 -4 10 -10 10 -5 0
-10 -4 -10 -10z"/>
<path d="M6807 3505 c-7 -16 8 -29 23 -20 10 6 2 35 -10 35 -4 0 -10 -7 -13
-15z"/>
<path d="M6707 3495 c-4 -8 -2 -17 3 -20 6 -4 10 3 10 14 0 25 -6 27 -13 6z"/>
<path d="M7705 3500 c-3 -5 -1 -10 4 -10 6 0 11 5 11 10 0 6 -2 10 -4 10 -3 0
-8 -4 -11 -10z"/>
<path d="M6537 3474 c7 -3 9 -12 6 -20 -3 -9 2 -14 16 -14 12 0 21 2 21 4 0
10 -32 36 -43 35 -9 0 -9 -2 0 -5z"/>
<path d="M6866 3471 c-4 -5 -2 -12 3 -15 5 -4 12 -2 15 3 4 5 2 12 -3 15 -5 4
-12 2 -15 -3z"/>
<path d="M7800 3469 c0 -5 5 -7 10 -4 6 3 10 8 10 11 0 2 -4 4 -10 4 -5 0 -10
-5 -10 -11z"/>
<path d="M6750 3460 c0 -5 7 -10 15 -10 8 0 15 5 15 10 0 6 -7 10 -15 10 -8 0
-15 -4 -15 -10z"/>
<path d="M6650 3450 c0 -5 7 -10 15 -10 8 0 15 5 15 10 0 6 -7 10 -15 10 -8 0
-15 -4 -15 -10z"/>
<path d="M6915 3450 c-8 -13 4 -32 16 -25 12 8 12 35 0 35 -6 0 -13 -4 -16
-10z"/>
<path d="M6597 3429 c-8 -29 6 -45 21 -26 9 10 8 18 -2 32 -12 17 -13 17 -19
-6z"/>
<path d="M6497 3433 c-14 -13 -7 -42 8 -37 8 4 15 15 15 25 0 19 -11 25 -23
12z"/>
<path d="M6810 3430 c0 -5 5 -10 10 -10 6 0 10 5 10 10 0 6 -4 10 -10 10 -5 0
-10 -4 -10 -10z"/>
<path d="M7800 3409 c0 -5 5 -7 10 -4 6 3 10 8 10 11 0 2 -4 4 -10 4 -5 0 -10
-5 -10 -11z"/>
<path d="M6547 3395 c-8 -20 -4 -29 11 -24 5 2 6 13 2 23 -6 19 -7 19 -13 1z"/>
<path d="M6756 3395 c-3 -8 -1 -15 4 -15 13 0 22 18 11 24 -5 3 -11 -1 -15 -9z"/>
<path d="M6650 3384 c0 -8 5 -12 10 -9 6 3 10 10 10 16 0 5 -4 9 -10 9 -5 0
-10 -7 -10 -16z"/>
<path d="M5565 3370 c3 -5 8 -10 11 -10 2 0 4 5 4 10 0 6 -5 10 -11 10 -5 0
-7 -4 -4 -10z"/>
<path d="M6920 3370 c-13 -8 -12 -10 3 -10 9 0 17 5 17 10 0 12 -1 12 -20 0z"/>
<path d="M6597 3357 c-3 -8 -1 -20 4 -28 5 -8 9 -12 10 -9 0 3 2 13 4 22 4 22
-11 33 -18 15z"/>
<path d="M6710 3356 c0 -9 5 -16 10 -16 6 0 10 4 10 9 0 6 -4 13 -10 16 -5 3
-10 -1 -10 -9z"/>
<path d="M6860 3334 c0 -8 5 -12 10 -9 6 3 10 10 10 16 0 5 -4 9 -10 9 -5 0
-10 -7 -10 -16z"/>
<path d="M7790 3340 c0 -5 5 -10 10 -10 6 0 10 5 10 10 0 6 -4 10 -10 10 -5 0
-10 -4 -10 -10z"/>
<path d="M6543 3320 c-1 -11 4 -20 13 -20 16 0 16 2 8 24 -8 22 -19 20 -21 -4z"/>
<path d="M6760 3320 c0 -5 5 -10 10 -10 6 0 10 5 10 10 0 6 -4 10 -10 10 -5 0
-10 -4 -10 -10z"/>
<path d="M6650 3310 c0 -5 4 -10 9 -10 6 0 13 5 16 10 3 6 -1 10 -9 10 -9 0
-16 -4 -16 -10z"/>
<path d="M6916 3304 c-4 -9 -4 -19 -2 -21 8 -8 26 8 26 23 0 19 -16 18 -24 -2z"/>
<path d="M6493 3284 c0 -14 4 -23 11 -21 17 6 19 34 3 40 -10 4 -14 -2 -14
-19z"/>
<path d="M6588 3303 c6 -2 12 -13 12 -24 0 -10 7 -19 15 -19 8 0 15 4 15 8 0
12 -34 42 -46 41 -5 0 -3 -3 4 -6z"/>
<path d="M6810 3290 c0 -5 5 -10 11 -10 5 0 7 5 4 10 -3 6 -8 10 -11 10 -2 0
-4 -4 -4 -10z"/>
<path d="M6705 3280 c-3 -5 -2 -10 4 -10 5 0 13 5 16 10 3 6 2 10 -4 10 -5 0
-13 -4 -16 -10z"/>
<path d="M6860 3260 c0 -5 5 -10 10 -10 6 0 10 5 10 10 0 6 -4 10 -10 10 -5 0
-10 -4 -10 -10z"/>
<path d="M6650 3240 c0 -5 7 -7 15 -4 8 4 15 8 15 10 0 2 -7 4 -15 4 -8 0 -15
-4 -15 -10z"/>
<path d="M6499 3230 c-4 -25 -3 -30 6 -30 6 0 11 9 11 20 1 20 -15 29 -17 10z"/>
<path d="M6920 3230 c-13 -8 -12 -10 3 -10 9 0 17 5 17 10 0 12 -1 12 -20 0z"/>
<path d="M6600 3210 c0 -5 7 -10 16 -10 8 0 12 5 9 10 -3 6 -10 10 -16 10 -5
0 -9 -4 -9 -10z"/>
<path d="M6710 3210 c0 -5 5 -10 10 -10 6 0 10 5 10 10 0 6 -4 10 -10 10 -5 0
-10 -4 -10 -10z"/>
<path d="M6810 3209 c0 -5 5 -7 10 -4 6 3 10 8 10 11 0 2 -4 4 -10 4 -5 0 -10
-5 -10 -11z"/>
<path d="M6437 3180 c3 -11 11 -19 17 -17 17 6 13 31 -6 35 -12 2 -15 -2 -11
-18z"/>
<path d="M6860 3189 c0 -5 5 -7 10 -4 6 3 10 8 10 11 0 2 -4 4 -10 4 -5 0 -10
-5 -10 -11z"/>
<path d="M6540 3180 c0 -5 7 -10 15 -10 8 0 15 5 15 10 0 6 -7 10 -15 10 -8 0
-15 -4 -15 -10z"/>
<path d="M6660 3169 c0 -5 5 -7 10 -4 6 3 10 8 10 11 0 2 -4 4 -10 4 -5 0 -10
-5 -10 -11z"/>
<path d="M6920 3164 c0 -8 5 -12 10 -9 6 3 10 10 10 16 0 5 -4 9 -10 9 -5 0
-10 -7 -10 -16z"/>
<path d="M6596 3145 c-3 -9 0 -15 9 -15 8 0 15 7 15 15 0 8 -4 15 -9 15 -5 0
-11 -7 -15 -15z"/>
<path d="M6495 3140 c3 -5 12 -7 20 -3 21 7 19 13 -6 13 -11 0 -18 -4 -14 -10z"/>
<path d="M6710 3139 c0 -5 5 -7 10 -4 6 3 10 8 10 11 0 2 -4 4 -10 4 -5 0 -10
-5 -10 -11z"/>
<path d="M6447 3123 c-12 -11 -8 -23 8 -23 8 0 15 7 15 15 0 16 -12 20 -23 8z"/>
<path d="M6760 3120 c0 -5 5 -10 11 -10 5 0 7 5 4 10 -3 6 -8 10 -11 10 -2 0
-4 -4 -4 -10z"/>
<path d="M6551 3111 c-10 -6 -10 -10 -1 -16 13 -8 24 -1 19 14 -3 6 -10 7 -18
2z"/>
<path d="M6502 3098 c-17 -17 -15 -38 3 -38 10 0 14 9 13 25 -1 14 -3 25 -3
25 -1 0 -6 -5 -13 -12z"/>
<path d="M6606 3081 c-4 -7 -5 -15 -2 -18 9 -9 19 4 14 18 -4 11 -6 11 -12 0z"/>
<path d="M6700 3080 c0 -5 7 -10 15 -10 8 0 15 5 15 10 0 6 -7 10 -15 10 -8 0
-15 -4 -15 -10z"/>
<path d="M5616 3067 c3 -10 9 -15 12 -12 3 3 0 11 -7 18 -10 9 -11 8 -5 -6z"/>
<path d="M6448 3055 c-4 -17 -1 -25 8 -25 8 0 14 9 14 19 0 30 -17 34 -22 6z"/>
<path d="M6546 3054 c-9 -23 -8 -24 14 -24 24 0 25 6 6 25 -12 12 -15 12 -20
-1z"/>
<path d="M6870 3059 c0 -5 5 -7 10 -4 6 3 10 8 10 11 0 2 -4 4 -10 4 -5 0 -10
-5 -10 -11z"/>
<path d="M5626 3025 c-3 -8 -1 -15 4 -15 6 0 10 7 10 15 0 8 -2 15 -4 15 -2 0
-6 -7 -10 -15z"/>
<path d="M6503 3016 c0 -16 4 -23 13 -19 10 4 11 10 3 24 -13 25 -16 24 -16
-5z"/>
<path d="M6915 3030 c-3 -5 -2 -10 4 -10 5 0 13 5 16 10 3 6 2 10 -4 10 -5 0
-13 -4 -16 -10z"/>
<path d="M6608 3003 c7 -3 16 -2 19 1 4 3 -2 6 -13 5 -11 0 -14 -3 -6 -6z"/>
<path d="M6865 2990 c-3 -5 -2 -10 4 -10 5 0 13 5 16 10 3 6 2 10 -4 10 -5 0
-13 -4 -16 -10z"/>
<path d="M6550 2975 c0 -9 6 -12 15 -9 8 4 12 10 9 15 -8 14 -24 10 -24 -6z"/>
<path d="M6660 2980 c0 -5 5 -10 11 -10 5 0 7 5 4 10 -3 6 -8 10 -11 10 -2 0
-4 -4 -4 -10z"/>
<path d="M6500 2944 c0 -8 5 -12 10 -9 6 3 10 10 10 16 0 5 -4 9 -10 9 -5 0
-10 -7 -10 -16z"/>
<path d="M6610 2940 c-13 -8 -12 -10 3 -10 9 0 17 5 17 10 0 12 -1 12 -20 0z"/>
<path d="M6448 2933 c7 -3 16 -2 19 1 4 3 -2 6 -13 5 -11 0 -14 -3 -6 -6z"/>
<path d="M5600 2915 c0 -8 2 -15 4 -15 2 0 6 7 10 15 3 8 1 15 -4 15 -6 0 -10
-7 -10 -15z"/>
<path d="M6556 2921 c-3 -5 1 -11 9 -14 9 -4 12 -1 8 9 -6 16 -10 17 -17 5z"/>
<path d="M6450 2910 c0 -5 5 -10 11 -10 5 0 7 5 4 10 -3 6 -8 10 -11 10 -2 0
-4 -4 -4 -10z"/>
<path d="M6915 2900 c-3 -5 1 -10 9 -10 9 0 16 5 16 10 0 6 -4 10 -9 10 -6 0
-13 -4 -16 -10z"/>
<path d="M5555 2890 c-3 -5 1 -10 10 -10 9 0 13 5 10 10 -3 6 -8 10 -10 10 -2
0 -7 -4 -10 -10z"/>
<path d="M6391 2887 c-9 -12 -8 -16 3 -20 19 -7 32 11 19 24 -6 6 -14 5 -22
-4z"/>
<path d="M6815 2890 c-3 -5 -2 -10 4 -10 5 0 13 5 16 10 3 6 2 10 -4 10 -5 0
-13 -4 -16 -10z"/>
<path d="M6610 2880 c0 -5 5 -10 10 -10 6 0 10 5 10 10 0 6 -4 10 -10 10 -5 0
-10 -4 -10 -10z"/>
<path d="M6715 2880 c3 -5 8 -10 11 -10 2 0 4 5 4 10 0 6 -5 10 -11 10 -5 0
-7 -4 -4 -10z"/>
<path d="M5420 2859 c0 -5 5 -7 10 -4 6 3 10 8 10 11 0 2 -4 4 -10 4 -5 0 -10
-5 -10 -11z"/>
<path d="M5515 2860 c3 -5 8 -10 11 -10 2 0 4 5 4 10 0 6 -5 10 -11 10 -5 0
-7 -4 -4 -10z"/>
<path d="M6350 2860 c11 -7 11 -10 2 -10 -7 0 -10 -5 -6 -11 4 -7 10 -7 16 -1
12 12 2 32 -15 32 -7 0 -6 -4 3 -10z"/>
<path d="M6285 2850 c-4 -6 3 -10 14 -10 25 0 27 6 6 13 -8 4 -17 2 -20 -3z"/>
<path d="M6455 2851 c-3 -5 -1 -12 5 -16 5 -3 10 1 10 9 0 18 -6 21 -15 7z"/>
<path d="M5570 2840 c0 -5 5 -10 11 -10 5 0 7 5 4 10 -3 6 -8 10 -11 10 -2 0
-4 -4 -4 -10z"/>
<path d="M6925 2830 c-3 -5 -1 -10 4 -10 6 0 11 5 11 10 0 6 -2 10 -4 10 -3 0
-8 -4 -11 -10z"/>
<path d="M6255 2822 c3 -3 0 -11 -6 -19 -9 -10 -7 -13 6 -13 10 0 15 3 12 7
-4 3 -2 11 3 18 7 8 5 12 -5 12 -8 0 -13 -3 -10 -5z"/>
<path d="M6290 2820 c0 -5 5 -10 10 -10 6 0 10 5 10 10 0 6 -4 10 -10 10 -5 0
-10 -4 -10 -10z"/>
<path d="M6400 2820 c0 -5 7 -10 16 -10 8 0 12 5 9 10 -3 6 -10 10 -16 10 -5
0 -9 -4 -9 -10z"/>
<path d="M6710 2820 c0 -5 5 -10 10 -10 6 0 10 5 10 10 0 6 -4 10 -10 10 -5 0
-10 -4 -10 -10z"/>
<path d="M6500 2809 c0 -5 5 -7 10 -4 6 3 10 8 10 11 0 2 -4 4 -10 4 -5 0 -10
-5 -10 -11z"/>
<path d="M5570 2800 c0 -5 5 -10 11 -10 5 0 7 5 4 10 -3 6 -8 10 -11 10 -2 0
-4 -4 -4 -10z"/>
<path d="M5531 2774 c0 -11 3 -14 6 -6 3 7 2 16 -1 19 -3 4 -6 -2 -5 -13z"/>
<path d="M5952 2778 c2 -6 10 -14 16 -16 7 -2 10 2 6 12 -7 18 -28 22 -22 4z"/>
<path d="M6300 2779 c0 -5 5 -7 10 -4 6 3 10 8 10 11 0 2 -4 4 -10 4 -5 0 -10
-5 -10 -11z"/>
<path d="M6200 2765 c0 -8 7 -15 16 -15 14 0 14 3 4 15 -7 8 -14 15 -16 15 -2
0 -4 -7 -4 -15z"/>
<path d="M6920 2770 c0 -5 5 -10 10 -10 6 0 10 5 10 10 0 6 -4 10 -10 10 -5 0
-10 -4 -10 -10z"/>
<path d="M5566 2756 c3 -9 11 -16 16 -16 13 0 5 23 -10 28 -7 2 -10 -2 -6 -12z"/>
<path d="M5923 2755 c0 -8 4 -12 9 -9 4 3 8 9 8 15 0 5 -4 9 -8 9 -5 0 -9 -7
-9 -15z"/>
<path d="M6810 2760 c0 -5 5 -10 10 -10 6 0 10 5 10 10 0 6 -4 10 -10 10 -5 0
-10 -4 -10 -10z"/>
<path d="M6050 2756 c0 -2 7 -9 15 -16 12 -10 15 -10 15 4 0 9 -7 16 -15 16
-8 0 -15 -2 -15 -4z"/>
<path d="M6157 2741 c3 -12 9 -21 14 -21 14 0 11 16 -5 29 -12 10 -13 8 -9 -8z"/>
<path d="M6295 2750 c3 -5 8 -10 11 -10 2 0 4 5 4 10 0 6 -5 10 -11 10 -5 0
-7 -4 -4 -10z"/>
<path d="M6406 2745 c4 -8 8 -15 10 -15 2 0 4 7 4 15 0 8 -4 15 -10 15 -5 0
-7 -7 -4 -15z"/>
<path d="M6505 2750 c3 -5 8 -10 11 -10 2 0 4 5 4 10 0 6 -5 10 -11 10 -5 0
-7 -4 -4 -10z"/>
<path d="M6010 2720 c0 -5 5 -10 11 -10 5 0 7 5 4 10 -3 6 -8 10 -11 10 -2 0
-4 -4 -4 -10z"/>
<path d="M6260 2720 c-13 -8 -12 -10 3 -10 9 0 17 5 17 10 0 12 -1 12 -20 0z"/>
<path d="M5960 2706 c0 -9 5 -16 10 -16 6 0 10 4 10 9 0 6 -4 13 -10 16 -5 3
-10 -1 -10 -9z"/>
<path d="M6106 2704 c-4 -9 -4 -19 -1 -22 2 -3 7 3 11 12 4 9 4 19 1 22 -2 3
-7 -3 -11 -12z"/>
<path d="M6208 2713 c7 -3 16 -2 19 1 4 3 -2 6 -13 5 -11 0 -14 -3 -6 -6z"/>
<path d="M6205 2690 c3 -5 8 -10 11 -10 2 0 4 5 4 10 0 6 -5 10 -11 10 -5 0
-7 -4 -4 -10z"/>
<path d="M5455 2680 c3 -5 8 -10 11 -10 2 0 4 5 4 10 0 6 -5 10 -11 10 -5 0
-7 -4 -4 -10z"/>
<path d="M5540 2680 c0 -5 5 -10 11 -10 5 0 7 5 4 10 -3 6 -8 10 -11 10 -2 0
-4 -4 -4 -10z"/>
<path d="M5926 2681 c-4 -7 -5 -15 -2 -18 9 -9 19 4 14 18 -4 11 -6 11 -12 0z"/>
<path d="M6500 2676 c0 -9 5 -16 10 -16 6 0 10 4 10 9 0 6 -4 13 -10 16 -5 3
-10 -1 -10 -9z"/>
<path d="M5495 2660 c-3 -5 -1 -10 4 -10 6 0 11 5 11 10 0 6 -2 10 -4 10 -3 0
-8 -4 -11 -10z"/>
<path d="M5960 2650 c0 -11 4 -20 9 -20 5 0 7 9 4 20 -3 11 -7 20 -9 20 -2 0
-4 -9 -4 -20z"/>
<path d="M6155 2660 c-3 -5 -1 -10 4 -10 6 0 11 5 11 10 0 6 -2 10 -4 10 -3 0
-8 -4 -11 -10z"/>
<path d="M6100 2646 c0 -9 5 -16 10 -16 6 0 10 4 10 9 0 6 -4 13 -10 16 -5 3
-10 -1 -10 -9z"/>
<path d="M5545 2630 c3 -5 11 -10 16 -10 6 0 7 5 4 10 -3 6 -11 10 -16 10 -6
0 -7 -4 -4 -10z"/>
<path d="M6915 2630 c-3 -5 -2 -10 4 -10 5 0 13 5 16 10 3 6 2 10 -4 10 -5 0
-13 -4 -16 -10z"/>
<path d="M6300 2610 c-9 -6 -10 -10 -3 -10 6 0 15 5 18 10 8 12 4 12 -15 0z"/>
<path d="M5555 2599 c-4 -6 -5 -12 -2 -15 2 -3 7 2 10 11 7 17 1 20 -8 4z"/>
<path d="M5875 2600 c-3 -5 -1 -10 4 -10 6 0 11 5 11 10 0 6 -2 10 -4 10 -3 0
-8 -4 -11 -10z"/>
<path d="M6155 2600 c3 -5 8 -10 11 -10 2 0 4 5 4 10 0 6 -5 10 -11 10 -5 0
-7 -4 -4 -10z"/>
<path d="M6106 2575 c4 -8 10 -15 15 -15 4 0 6 7 3 15 -4 8 -10 15 -15 15 -4
0 -6 -7 -3 -15z"/>
<path d="M6920 2569 c0 -5 5 -7 10 -4 6 3 10 8 10 11 0 2 -4 4 -10 4 -5 0 -10
-5 -10 -11z"/>
<path d="M5470 2556 c0 -9 5 -16 10 -16 6 0 10 4 10 9 0 6 -4 13 -10 16 -5 3
-10 -1 -10 -9z"/>
<path d="M6061 2554 c0 -11 3 -14 6 -6 3 7 2 16 -1 19 -3 4 -6 -2 -5 -13z"/>
<path d="M5830 2520 c0 -5 5 -10 11 -10 5 0 7 5 4 10 -3 6 -8 10 -11 10 -2 0
-4 -4 -4 -10z"/>
<path d="M5480 2510 c0 -5 5 -10 11 -10 5 0 7 5 4 10 -3 6 -8 10 -11 10 -2 0
-4 -4 -4 -10z"/>
<path d="M6926 2503 c-6 -14 -5 -15 5 -6 7 7 10 15 7 18 -3 3 -9 -2 -12 -12z"/>
<path d="M6060 2491 c0 -6 4 -13 10 -16 6 -3 7 1 4 9 -7 18 -14 21 -14 7z"/>
<path d="M6300 2479 c0 -5 5 -7 10 -4 6 3 10 8 10 11 0 2 -4 4 -10 4 -5 0 -10
-5 -10 -11z"/>
<path d="M6205 2430 c3 -5 8 -10 11 -10 2 0 4 5 4 10 0 6 -5 10 -11 10 -5 0
-7 -4 -4 -10z"/>
<path d="M6065 2160 c3 -5 8 -10 11 -10 2 0 4 5 4 10 0 6 -5 10 -11 10 -5 0
-7 -4 -4 -10z"/>
<path d="M6970 2025 c0 -8 5 -15 10 -15 6 0 10 7 10 15 0 8 -4 15 -10 15 -5 0
-10 -7 -10 -15z"/>
<path d="M6977 1833 c-4 -3 -7 -11 -7 -17 0 -6 5 -5 12 2 6 6 9 14 7 17 -3 3
-9 2 -12 -2z"/>
<path d="M6973 1695 c0 -8 4 -15 9 -15 4 0 8 7 8 15 0 8 -4 15 -8 15 -5 0 -9
-7 -9 -15z"/>
<path d="M6920 1590 c0 -5 5 -10 10 -10 6 0 10 5 10 10 0 6 -4 10 -10 10 -5 0
-10 -4 -10 -10z"/>
<path d="M7225 1570 c-3 -5 -1 -10 4 -10 6 0 11 5 11 10 0 6 -2 10 -4 10 -3 0
-8 -4 -11 -10z"/>
<path d="M7120 1550 c0 -5 5 -10 10 -10 6 0 10 5 10 10 0 6 -4 10 -10 10 -5 0
-10 -4 -10 -10z"/>
<path d="M7170 1529 c0 -5 5 -7 10 -4 6 3 10 8 10 11 0 2 -4 4 -10 4 -5 0 -10
-5 -10 -11z"/>
<path d="M7125 1480 c-3 -5 -1 -10 4 -10 6 0 11 5 11 10 0 6 -2 10 -4 10 -3 0
-8 -4 -11 -10z"/>
<path d="M7165 1471 c-3 -5 -1 -12 5 -16 5 -3 10 1 10 9 0 18 -6 21 -15 7z"/>
<path d="M7415 1370 c-3 -5 -1 -10 4 -10 6 0 11 5 11 10 0 6 -2 10 -4 10 -3 0
-8 -4 -11 -10z"/>
</g>
</svg>
